<?xml version="1.0" encoding="UTF-8"?>
<svg xmlns="http://www.w3.org/2000/svg" xmlns:xlink="http://www.w3.org/1999/xlink" width="16px" height="16px" viewBox="0 0 16 16" version="1.1">
<g id="surface1">
<path style=" stroke:none;fill-rule:nonzero;fill:rgb(97.647059%,78.431374%,22.352941%);fill-opacity:1;" d="M 0 0 C 5.28125 0 10.558594 0 16 0 C 16 5.28125 16 10.558594 16 16 C 10.71875 16 5.441406 16 0 16 C 0 10.71875 0 5.441406 0 0 Z M 0 0 "/>
<path style=" stroke:none;fill-rule:nonzero;fill:rgb(0%,0%,0%);fill-opacity:1;" d="M 0 0 C 5.28125 0 10.558594 0 16 0 C 16 5.28125 16 10.558594 16 16 C 10.71875 16 5.441406 16 0 16 C 0 10.71875 0 5.441406 0 0 Z M 2.824219 3.53125 C 2.550781 3.851562 2.550781 3.851562 2.398438 4.234375 C 2.34375 4.425781 2.257812 4.492188 2.117188 4.628906 C 1.324219 5.949219 1.328125 7.714844 1.644531 9.183594 C 1.898438 10.183594 2.277344 11.21875 3.058594 11.921875 C 3.097656 11.964844 3.136719 12.003906 3.175781 12.046875 C 3.554688 12.457031 3.988281 12.738281 4.46875 13.019531 C 4.523438 13.050781 4.574219 13.082031 4.625 13.113281 C 5.398438 13.535156 6.335938 13.742188 7.210938 13.730469 C 7.285156 13.730469 7.359375 13.730469 7.4375 13.726562 C 7.496094 13.726562 7.550781 13.726562 7.609375 13.726562 C 7.609375 13.855469 7.609375 13.984375 7.609375 14.117188 C 7.660156 14.039062 7.710938 13.960938 7.765625 13.882812 C 7.941406 13.847656 7.941406 13.847656 8.160156 13.835938 C 8.242188 13.832031 8.324219 13.828125 8.40625 13.820312 C 8.496094 13.816406 8.582031 13.8125 8.671875 13.808594 C 10.453125 13.691406 12.203125 13.257812 13.488281 11.921875 C 13.574219 11.792969 13.652344 11.664062 13.726562 11.53125 C 13.796875 11.460938 13.796875 11.460938 13.871094 11.390625 C 14.925781 10.28125 15.019531 8.519531 15.003906 7.085938 C 14.984375 6.464844 14.867188 5.921875 14.667969 5.332031 C 14.644531 5.261719 14.625 5.195312 14.605469 5.121094 C 14.09375 3.617188 12.714844 2.433594 11.347656 1.742188 C 8.375 0.292969 5.007812 1.132812 2.824219 3.53125 Z M 2.824219 3.53125 "/>
<path style=" stroke:none;fill-rule:nonzero;fill:rgb(50.980395%,36.470589%,12.54902%);fill-opacity:1;" d="M 12.535156 2.460938 C 13.820312 3.53125 14.773438 4.890625 14.980469 6.589844 C 15.0625 8.320312 14.953125 10.007812 13.882812 11.449219 C 13.832031 11.488281 13.777344 11.527344 13.726562 11.566406 C 13.554688 11.679688 13.554688 11.679688 13.457031 11.875 C 12.894531 12.796875 11.464844 13.328125 10.484375 13.585938 C 9.84375 13.71875 9.195312 13.789062 8.539062 13.824219 C 8.441406 13.828125 8.34375 13.832031 8.238281 13.839844 C 8.152344 13.839844 8.0625 13.84375 7.972656 13.847656 C 7.90625 13.859375 7.835938 13.871094 7.765625 13.882812 C 7.714844 13.960938 7.660156 14.039062 7.609375 14.117188 C 7.609375 13.988281 7.609375 13.859375 7.609375 13.726562 C 7.558594 13.726562 7.511719 13.730469 7.460938 13.734375 C 5.863281 13.78125 4.390625 13.179688 3.234375 12.09375 C 1.984375 10.863281 1.484375 9.238281 1.464844 7.511719 C 1.472656 6.429688 1.640625 5.414062 2.195312 4.46875 C 2.273438 4.433594 2.273438 4.433594 2.351562 4.390625 C 2.40625 4.261719 2.457031 4.132812 2.511719 4 C 3.515625 2.472656 5.089844 1.578125 6.835938 1.15625 C 8.828125 0.761719 10.90625 1.246094 12.535156 2.460938 Z M 3.355469 3.378906 C 2.992188 3.78125 2.707031 4.238281 2.429688 4.707031 C 2.402344 4.757812 2.371094 4.808594 2.339844 4.863281 C 2.253906 5.015625 2.183594 5.171875 2.117188 5.332031 C 2.089844 5.402344 2.058594 5.472656 2.027344 5.546875 C 1.480469 7.125 1.722656 9.058594 2.410156 10.558594 C 2.8125 11.277344 3.355469 11.882812 4 12.390625 C 4.042969 12.425781 4.085938 12.460938 4.128906 12.5 C 5.320312 13.429688 6.863281 13.519531 8.308594 13.519531 C 8.367188 13.519531 8.429688 13.519531 8.488281 13.519531 C 9.175781 13.519531 9.839844 13.492188 10.511719 13.332031 C 10.511719 13.28125 10.511719 13.230469 10.511719 13.175781 C 10.582031 13.171875 10.65625 13.167969 10.730469 13.160156 C 11.464844 13.054688 12.203125 12.601562 12.785156 12.15625 C 12.785156 12.105469 12.785156 12.054688 12.785156 12 C 12.828125 11.980469 12.875 11.960938 12.921875 11.941406 C 13.707031 11.503906 14.195312 10.480469 14.445312 9.652344 C 14.640625 8.914062 14.683594 8.203125 14.691406 7.441406 C 14.691406 7.363281 14.695312 7.285156 14.695312 7.203125 C 14.695312 6.648438 14.601562 6.171875 14.429688 5.648438 C 14.398438 5.535156 14.398438 5.535156 14.363281 5.421875 C 13.875 3.875 12.632812 2.78125 11.257812 2.027344 C 10.707031 1.742188 10.195312 1.511719 9.570312 1.570312 C 9.570312 1.515625 9.570312 1.464844 9.570312 1.410156 C 7.1875 1.089844 5.097656 1.71875 3.355469 3.378906 Z M 3.355469 3.378906 "/>
<path style=" stroke:none;fill-rule:nonzero;fill:rgb(57.254905%,49.019608%,16.470589%);fill-opacity:1;" d="M 12.535156 2.460938 C 12.644531 2.554688 12.753906 2.648438 12.863281 2.746094 C 12.929688 2.804688 13 2.867188 13.070312 2.929688 C 13.449219 3.28125 13.722656 3.566406 13.84375 4.078125 C 13.886719 4.253906 13.941406 4.394531 14.039062 4.550781 C 14.117188 4.574219 14.195312 4.601562 14.273438 4.628906 C 15.019531 6.058594 14.929688 7.714844 14.667969 9.253906 C 14.613281 9.253906 14.5625 9.253906 14.511719 9.253906 C 14.515625 9.203125 14.519531 9.152344 14.527344 9.097656 C 14.582031 8.550781 14.605469 8.003906 14.609375 7.449219 C 14.609375 7.371094 14.609375 7.292969 14.613281 7.210938 C 14.617188 6.65625 14.523438 6.175781 14.351562 5.648438 C 14.332031 5.574219 14.308594 5.5 14.285156 5.421875 C 13.804688 3.902344 12.609375 2.847656 11.257812 2.105469 C 10.714844 1.824219 10.179688 1.621094 9.570312 1.570312 C 9.570312 1.515625 9.570312 1.464844 9.570312 1.410156 C 9.25 1.40625 8.929688 1.40625 8.609375 1.402344 C 8.519531 1.402344 8.429688 1.398438 8.335938 1.398438 C 7.503906 1.394531 6.722656 1.480469 5.945312 1.789062 C 5.890625 1.808594 5.839844 1.832031 5.785156 1.851562 C 4.34375 2.429688 3.296875 3.375 2.511719 4.707031 C 2.480469 4.757812 2.449219 4.808594 2.417969 4.863281 C 2.332031 5.015625 2.261719 5.171875 2.195312 5.332031 C 2.167969 5.402344 2.136719 5.472656 2.109375 5.546875 C 1.71875 6.664062 1.8125 7.9375 1.960938 9.097656 C 1.605469 8.785156 1.585938 8.382812 1.554688 7.929688 C 1.542969 7.679688 1.542969 7.433594 1.542969 7.1875 C 1.542969 7.101562 1.542969 7.019531 1.539062 6.933594 C 1.539062 6.1875 1.691406 5.53125 2.003906 4.851562 C 2.054688 4.746094 2.054688 4.746094 2.101562 4.636719 C 2.195312 4.46875 2.195312 4.46875 2.351562 4.390625 C 2.40625 4.261719 2.457031 4.132812 2.511719 4 C 3.515625 2.472656 5.089844 1.578125 6.835938 1.15625 C 8.828125 0.761719 10.90625 1.246094 12.535156 2.460938 Z M 12.535156 2.460938 "/>
<path style=" stroke:none;fill-rule:nonzero;fill:rgb(90.196079%,63.529414%,8.627451%);fill-opacity:1;" d="M 13.960938 10.117188 C 14.039062 10.117188 14.117188 10.117188 14.195312 10.117188 C 14.046875 10.851562 13.472656 11.5 12.941406 12 C 12.890625 12 12.835938 12 12.785156 12 C 12.785156 12.050781 12.785156 12.105469 12.785156 12.15625 C 12.171875 12.648438 11.324219 13.222656 10.511719 13.175781 C 10.511719 13.226562 10.511719 13.28125 10.511719 13.332031 C 9.777344 13.503906 9.054688 13.523438 8.308594 13.519531 C 8.246094 13.519531 8.1875 13.519531 8.125 13.519531 C 6.34375 13.515625 4.738281 13.164062 3.398438 11.898438 C 2.988281 11.46875 2.632812 10.988281 2.429688 10.429688 C 2.582031 10.484375 2.582031 10.484375 2.746094 10.589844 C 2.757812 10.652344 2.769531 10.71875 2.78125 10.785156 C 2.792969 10.847656 2.808594 10.914062 2.824219 10.980469 C 3.019531 11.089844 3.019531 11.089844 3.214844 11.136719 C 3.214844 11.214844 3.214844 11.292969 3.214844 11.371094 C 3.261719 11.378906 3.308594 11.390625 3.359375 11.398438 C 3.558594 11.460938 3.621094 11.539062 3.765625 11.6875 C 5.21875 12.992188 7.410156 13.035156 9.253906 12.941406 C 9.65625 12.898438 10.042969 12.808594 10.429688 12.707031 C 10.5625 12.679688 10.691406 12.65625 10.824219 12.632812 C 11.15625 12.558594 11.398438 12.417969 11.6875 12.234375 C 12.210938 11.921875 12.210938 11.921875 12.390625 11.921875 C 12.390625 11.871094 12.390625 11.816406 12.390625 11.765625 C 12.503906 11.691406 12.617188 11.617188 12.734375 11.546875 C 12.945312 11.390625 13.09375 11.183594 13.253906 10.980469 C 13.332031 10.90625 13.332031 10.90625 13.410156 10.828125 C 13.589844 10.644531 13.722656 10.445312 13.863281 10.226562 C 13.894531 10.191406 13.925781 10.15625 13.960938 10.117188 Z M 13.960938 10.117188 "/>
<path style=" stroke:none;fill-rule:nonzero;fill:rgb(11.372549%,9.019608%,1.176471%);fill-opacity:1;" d="M 7.84375 6.039062 C 8.039062 6.078125 8.039062 6.078125 8.234375 6.117188 C 8.246094 6.210938 8.246094 6.210938 8.257812 6.308594 C 8.34375 6.902344 8.433594 7.257812 8.863281 7.6875 C 9.054688 7.707031 9.054688 7.707031 9.265625 7.695312 C 9.371094 7.695312 9.371094 7.695312 9.480469 7.691406 C 9.5625 7.6875 9.5625 7.6875 9.648438 7.6875 C 9.726562 7.480469 9.800781 7.273438 9.882812 7.058594 C 9.984375 7.058594 10.089844 7.058594 10.195312 7.058594 C 10.21875 7.449219 10.210938 7.691406 9.960938 8 C 9.695312 8.21875 9.453125 8.28125 9.109375 8.269531 C 8.664062 8.179688 8.292969 7.859375 8 7.53125 C 7.980469 7.574219 7.964844 7.617188 7.945312 7.660156 C 7.753906 7.996094 7.496094 8.246094 7.136719 8.390625 C 6.84375 8.433594 6.566406 8.4375 6.273438 8.390625 C 6.03125 8.199219 6.03125 8.199219 5.882812 8 C 5.855469 7.972656 5.832031 7.949219 5.804688 7.921875 C 5.785156 7.488281 5.785156 7.488281 5.882812 7.292969 C 6.011719 7.320312 6.140625 7.347656 6.273438 7.371094 C 6.273438 7.433594 6.269531 7.492188 6.269531 7.554688 C 6.265625 7.773438 6.265625 7.773438 6.351562 8 C 6.964844 7.957031 6.964844 7.957031 7.457031 7.628906 C 7.761719 7.113281 7.804688 6.628906 7.84375 6.039062 Z M 7.84375 6.039062 "/>
<path style=" stroke:none;fill-rule:nonzero;fill:rgb(65.098041%,50.980395%,16.470589%);fill-opacity:1;" d="M 7.585938 1.246094 C 7.675781 1.246094 7.675781 1.246094 7.765625 1.246094 C 7.953125 1.246094 8.140625 1.25 8.328125 1.25 C 8.457031 1.25 8.582031 1.25 8.710938 1.25 C 9.023438 1.25 9.335938 1.253906 9.648438 1.253906 C 9.648438 1.308594 9.648438 1.359375 9.648438 1.410156 C 9.699219 1.402344 9.75 1.394531 9.800781 1.386719 C 10.78125 1.300781 11.753906 1.839844 12.515625 2.425781 C 12.632812 2.53125 12.75 2.636719 12.863281 2.746094 C 12.933594 2.808594 13.003906 2.871094 13.074219 2.933594 C 13.453125 3.285156 13.722656 3.570312 13.84375 4.078125 C 13.886719 4.253906 13.941406 4.394531 14.039062 4.550781 C 14.15625 4.585938 14.15625 4.585938 14.273438 4.628906 C 15.019531 6.058594 14.929688 7.714844 14.667969 9.253906 C 14.613281 9.253906 14.5625 9.253906 14.511719 9.253906 C 14.515625 9.203125 14.519531 9.152344 14.527344 9.097656 C 14.582031 8.550781 14.605469 8.003906 14.609375 7.449219 C 14.609375 7.371094 14.609375 7.292969 14.613281 7.210938 C 14.617188 6.65625 14.523438 6.175781 14.351562 5.648438 C 14.332031 5.574219 14.308594 5.5 14.285156 5.421875 C 13.804688 3.902344 12.609375 2.847656 11.257812 2.105469 C 10.714844 1.824219 10.179688 1.621094 9.570312 1.570312 C 9.570312 1.515625 9.570312 1.464844 9.570312 1.410156 C 9.246094 1.410156 8.921875 1.40625 8.597656 1.40625 C 8.460938 1.40625 8.460938 1.40625 8.324219 1.40625 C 7.792969 1.402344 7.273438 1.421875 6.746094 1.488281 C 6.746094 1.4375 6.746094 1.386719 6.746094 1.332031 C 7.03125 1.238281 7.289062 1.246094 7.585938 1.246094 Z M 7.585938 1.246094 "/>
<path style=" stroke:none;fill-rule:nonzero;fill:rgb(89.411765%,63.137257%,7.450981%);fill-opacity:1;" d="M 2.429688 10.429688 C 2.582031 10.484375 2.582031 10.484375 2.746094 10.589844 C 2.757812 10.652344 2.769531 10.71875 2.78125 10.785156 C 2.792969 10.847656 2.808594 10.914062 2.824219 10.980469 C 3.019531 11.089844 3.019531 11.089844 3.214844 11.136719 C 3.214844 11.214844 3.214844 11.292969 3.214844 11.371094 C 3.285156 11.382812 3.285156 11.382812 3.359375 11.398438 C 3.558594 11.460938 3.621094 11.535156 3.765625 11.6875 C 4.207031 12.101562 4.714844 12.304688 5.277344 12.507812 C 5.449219 12.570312 5.449219 12.570312 5.726562 12.707031 C 5.78125 12.871094 5.78125 12.871094 5.804688 13.019531 C 5.867188 13.019531 5.929688 13.015625 5.996094 13.015625 C 6.195312 13.019531 6.195312 13.019531 6.273438 13.097656 C 7.003906 13.265625 7.746094 13.300781 8.488281 13.34375 C 8.601562 13.351562 8.714844 13.355469 8.828125 13.363281 C 9.101562 13.378906 9.375 13.394531 9.648438 13.410156 C 9.648438 13.4375 9.648438 13.464844 9.648438 13.488281 C 5.1875 13.585938 5.1875 13.585938 3.398438 11.898438 C 2.988281 11.46875 2.632812 10.988281 2.429688 10.429688 Z M 2.429688 10.429688 "/>
<path style=" stroke:none;fill-rule:nonzero;fill:rgb(49.019608%,37.64706%,15.686275%);fill-opacity:1;" d="M 1.488281 6.746094 C 1.515625 6.746094 1.542969 6.746094 1.570312 6.746094 C 1.570312 6.835938 1.574219 6.929688 1.578125 7.023438 C 1.605469 8.164062 1.605469 8.164062 2 9.214844 C 2.121094 9.417969 2.160156 9.574219 2.210938 9.804688 C 2.503906 10.929688 3.40625 12.007812 4.386719 12.621094 C 4.566406 12.714844 4.75 12.789062 4.941406 12.863281 C 4.691406 12.960938 4.488281 12.9375 4.234375 12.855469 C 3.707031 12.613281 3.304688 12.1875 2.941406 11.75 C 2.828125 11.609375 2.828125 11.609375 2.707031 11.496094 C 1.535156 10.269531 1.460938 8.328125 1.488281 6.746094 Z M 1.488281 6.746094 "/>
<path style=" stroke:none;fill-rule:nonzero;fill:rgb(89.803922%,63.921571%,7.450981%);fill-opacity:1;" d="M 13.960938 10.117188 C 14.039062 10.117188 14.117188 10.117188 14.195312 10.117188 C 14.066406 10.769531 13.574219 11.398438 13.097656 11.84375 C 12.890625 11.941406 12.890625 11.941406 12.707031 12 C 12.644531 12.046875 12.585938 12.097656 12.523438 12.148438 C 12.25 12.363281 11.890625 12.628906 11.53125 12.628906 C 11.53125 12.679688 11.53125 12.730469 11.53125 12.785156 C 11.339844 12.839844 11.148438 12.894531 10.957031 12.945312 C 10.902344 12.960938 10.847656 12.976562 10.792969 12.992188 C 10.375 13.109375 10.179688 13.054688 9.804688 12.863281 C 9.894531 12.84375 9.984375 12.824219 10.078125 12.804688 C 10.195312 12.777344 10.316406 12.753906 10.4375 12.726562 C 10.496094 12.714844 10.554688 12.699219 10.613281 12.6875 C 11.023438 12.597656 11.332031 12.457031 11.6875 12.234375 C 12.21875 11.921875 12.21875 11.921875 12.390625 11.921875 C 12.390625 11.871094 12.390625 11.816406 12.390625 11.765625 C 12.503906 11.691406 12.617188 11.617188 12.734375 11.546875 C 12.945312 11.390625 13.09375 11.183594 13.253906 10.980469 C 13.308594 10.929688 13.359375 10.878906 13.410156 10.828125 C 13.589844 10.644531 13.722656 10.445312 13.863281 10.226562 C 13.910156 10.171875 13.910156 10.171875 13.960938 10.117188 Z M 13.960938 10.117188 "/>
<path style=" stroke:none;fill-rule:nonzero;fill:rgb(92.54902%,83.92157%,33.725491%);fill-opacity:1;" d="M 8.46875 5.726562 C 8.480469 5.816406 8.488281 5.902344 8.5 5.996094 C 8.515625 6.085938 8.53125 6.179688 8.550781 6.273438 C 8.601562 6.300781 8.652344 6.328125 8.707031 6.351562 C 8.699219 6.398438 8.6875 6.445312 8.679688 6.492188 C 8.636719 6.792969 8.609375 7.003906 8.707031 7.292969 C 8.925781 7.515625 9.105469 7.519531 9.410156 7.53125 C 9.488281 7.503906 9.566406 7.476562 9.648438 7.449219 C 9.671875 7.269531 9.699219 7.089844 9.726562 6.902344 C 10.175781 6.890625 10.175781 6.890625 10.351562 6.980469 C 10.351562 7.160156 10.351562 7.34375 10.351562 7.53125 C 10.328125 7.53125 10.300781 7.53125 10.273438 7.53125 C 10.25 7.398438 10.222656 7.269531 10.195312 7.136719 C 10.09375 7.136719 9.988281 7.136719 9.882812 7.136719 C 9.859375 7.226562 9.832031 7.316406 9.808594 7.40625 C 9.726562 7.6875 9.726562 7.6875 9.648438 7.765625 C 9.320312 7.820312 8.992188 7.855469 8.710938 7.660156 C 8.304688 7.199219 8.21875 6.710938 8.15625 6.117188 C 8.054688 6.089844 7.949219 6.066406 7.84375 6.039062 C 7.847656 6.09375 7.851562 6.148438 7.855469 6.203125 C 7.878906 6.839844 7.777344 7.308594 7.367188 7.804688 C 7.132812 7.984375 6.9375 8.007812 6.652344 8.003906 C 6.503906 8.003906 6.503906 8.003906 6.351562 8 C 6.351562 7.972656 6.351562 7.949219 6.351562 7.921875 C 6.441406 7.910156 6.53125 7.902344 6.621094 7.890625 C 6.714844 7.875 6.808594 7.859375 6.902344 7.84375 C 6.929688 7.792969 6.953125 7.738281 6.980469 7.6875 C 7.082031 7.6875 7.1875 7.6875 7.292969 7.6875 C 7.472656 7.15625 7.558594 6.671875 7.617188 6.117188 C 7.6875 5.882812 7.6875 5.882812 7.875 5.730469 C 8.113281 5.632812 8.226562 5.648438 8.46875 5.726562 Z M 8.46875 5.726562 "/>
<path style=" stroke:none;fill-rule:nonzero;fill:rgb(95.686275%,87.450981%,33.725491%);fill-opacity:1;" d="M 5.960938 5.019531 C 6.480469 5 6.480469 5 6.746094 5.175781 C 6.796875 5.125 6.847656 5.074219 6.902344 5.019531 C 6.929688 5.441406 6.929688 5.441406 6.808594 5.652344 C 6.640625 5.832031 6.5 5.890625 6.269531 5.96875 C 5.96875 6.074219 5.96875 6.074219 5.726562 6.273438 C 5.484375 6.289062 5.484375 6.289062 5.253906 6.273438 C 5.175781 6.195312 5.175781 6.195312 5.167969 5.964844 C 5.175781 5.726562 5.175781 5.726562 5.253906 5.570312 C 5.332031 5.570312 5.410156 5.570312 5.488281 5.570312 C 5.515625 5.464844 5.542969 5.363281 5.570312 5.253906 C 5.699219 5.230469 5.828125 5.203125 5.960938 5.175781 C 5.960938 5.125 5.960938 5.074219 5.960938 5.019531 Z M 5.960938 5.019531 "/>
<path style=" stroke:none;fill-rule:nonzero;fill:rgb(46.666667%,38.431373%,18.431373%);fill-opacity:1;" d="M 13.648438 3.6875 C 14.507812 4.472656 14.914062 5.667969 14.996094 6.816406 C 15.003906 7.058594 15.007812 7.300781 15.003906 7.542969 C 15.003906 7.628906 15.003906 7.714844 15.003906 7.804688 C 14.984375 9.488281 14.984375 9.488281 14.589844 9.882812 C 14.597656 9.714844 14.609375 9.546875 14.621094 9.378906 C 14.628906 9.285156 14.636719 9.191406 14.640625 9.09375 C 14.660156 8.875 14.679688 8.660156 14.707031 8.445312 C 14.839844 7.273438 14.765625 6.277344 14.351562 5.175781 C 14.328125 5.078125 14.300781 4.980469 14.273438 4.878906 C 14.214844 4.613281 14.214844 4.613281 14 4.429688 C 13.753906 4.183594 13.71875 4.019531 13.648438 3.6875 Z M 13.648438 3.6875 "/>
<path style=" stroke:none;fill-rule:nonzero;fill:rgb(3.921569%,3.529412%,3.921569%);fill-opacity:1;" d="M 2.667969 11.53125 C 2.871094 11.613281 2.964844 11.660156 3.078125 11.851562 C 3.097656 11.902344 3.117188 11.949219 3.136719 12 C 3.011719 12.179688 2.886719 12.359375 2.761719 12.539062 C 2.722656 12.589844 2.6875 12.640625 2.652344 12.695312 C 2.617188 12.742188 2.582031 12.792969 2.546875 12.84375 C 2.515625 12.886719 2.484375 12.933594 2.453125 12.980469 C 2.351562 13.097656 2.351562 13.097656 2.117188 13.253906 C 1.945312 13.226562 1.945312 13.226562 1.804688 13.175781 C 1.75 13.039062 1.75 13.039062 1.726562 12.863281 C 1.824219 12.71875 1.824219 12.71875 1.96875 12.574219 C 2.269531 12.253906 2.472656 11.917969 2.667969 11.53125 Z M 2.667969 11.53125 "/>
<path style=" stroke:none;fill-rule:nonzero;fill:rgb(5.882353%,5.490196%,4.705882%);fill-opacity:1;" d="M 13.726562 11.449219 C 14.042969 11.558594 14.125 11.738281 14.304688 12.007812 C 14.441406 12.167969 14.558594 12.222656 14.746094 12.3125 C 14.808594 12.515625 14.808594 12.515625 14.824219 12.707031 C 14.746094 12.785156 14.746094 12.785156 14.539062 12.820312 C 14.097656 12.761719 13.867188 12.460938 13.570312 12.152344 C 13.488281 12 13.488281 12 13.503906 11.792969 C 13.570312 11.609375 13.570312 11.609375 13.726562 11.449219 Z M 13.726562 11.449219 "/>
<path style=" stroke:none;fill-rule:nonzero;fill:rgb(5.490196%,5.098039%,4.313726%);fill-opacity:1;" d="M 9.226562 13.71875 C 9.320312 13.722656 9.320312 13.722656 9.417969 13.722656 C 9.492188 13.722656 9.492188 13.722656 9.570312 13.726562 C 9.558594 13.769531 9.546875 13.816406 9.535156 13.859375 C 9.453125 14.234375 9.382812 14.601562 9.332031 14.980469 C 9.148438 15.03125 9.148438 15.03125 8.941406 15.058594 C 8.667969 14.785156 8.707031 14.414062 8.699219 14.042969 C 8.703125 13.964844 8.703125 13.886719 8.707031 13.804688 C 8.894531 13.710938 9.015625 13.71875 9.226562 13.71875 Z M 9.226562 13.71875 "/>
<path style=" stroke:none;fill-rule:nonzero;fill:rgb(5.490196%,4.705882%,4.705882%);fill-opacity:1;" d="M 6.902344 13.726562 C 7.136719 13.726562 7.367188 13.726562 7.609375 13.726562 C 7.621094 14.152344 7.597656 14.492188 7.449219 14.902344 C 7.398438 14.953125 7.347656 15.003906 7.292969 15.058594 C 7.164062 15.03125 7.035156 15.007812 6.902344 14.980469 C 6.902344 14.566406 6.902344 14.152344 6.902344 13.726562 Z M 6.902344 13.726562 "/>
<path style=" stroke:none;fill-rule:nonzero;fill:rgb(88.627452%,61.176473%,4.705882%);fill-opacity:1;" d="M 5.726562 12.707031 C 6.152344 12.785156 6.152344 12.785156 6.589844 12.863281 C 6.589844 12.914062 6.589844 12.964844 6.589844 13.019531 C 7.390625 13.046875 8.191406 13.070312 9.019531 13.097656 C 8.941406 13.253906 8.941406 13.253906 8.691406 13.347656 C 7.867188 13.535156 6.570312 13.390625 5.804688 13.019531 C 5.777344 12.917969 5.753906 12.8125 5.726562 12.707031 Z M 5.726562 12.707031 "/>
<path style=" stroke:none;fill-rule:nonzero;fill:rgb(51.372552%,36.862746%,12.156863%);fill-opacity:1;" d="M 13.488281 11.6875 C 13.460938 11.914062 13.417969 11.996094 13.25 12.160156 C 13.183594 12.210938 13.117188 12.265625 13.050781 12.320312 C 12.984375 12.371094 12.917969 12.425781 12.851562 12.476562 C 12.601562 12.644531 12.355469 12.753906 12.078125 12.863281 C 12.027344 12.882812 11.980469 12.902344 11.929688 12.921875 C 11.328125 13.167969 10.773438 13.386719 10.117188 13.410156 C 10.117188 13.386719 10.117188 13.359375 10.117188 13.332031 C 10.246094 13.332031 10.375 13.332031 10.511719 13.332031 C 10.511719 13.28125 10.511719 13.230469 10.511719 13.175781 C 10.578125 13.160156 10.578125 13.160156 10.648438 13.140625 C 11.289062 12.964844 11.925781 12.71875 12.449219 12.296875 C 12.628906 12.15625 12.628906 12.15625 12.785156 12.15625 C 12.785156 12.105469 12.785156 12.054688 12.785156 12 C 13.3125 11.6875 13.3125 11.6875 13.488281 11.6875 Z M 13.488281 11.6875 "/>
<path style=" stroke:none;fill-rule:nonzero;fill:rgb(85.490197%,60.784316%,13.333334%);fill-opacity:1;" d="M 12.785156 11.84375 C 12.863281 11.867188 12.941406 11.894531 13.019531 11.921875 C 12.941406 11.949219 12.863281 11.972656 12.785156 12 C 12.785156 12.050781 12.785156 12.105469 12.785156 12.15625 C 12.171875 12.648438 11.324219 13.222656 10.511719 13.175781 C 10.511719 13.226562 10.511719 13.28125 10.511719 13.332031 C 10.226562 13.359375 9.941406 13.386719 9.648438 13.410156 C 9.699219 13.308594 9.75 13.203125 9.804688 13.097656 C 10.011719 13.039062 10.199219 12.996094 10.410156 12.964844 C 10.46875 12.957031 10.523438 12.949219 10.578125 12.9375 C 10.738281 12.910156 10.898438 12.886719 11.058594 12.863281 C 11.214844 12.835938 11.371094 12.8125 11.53125 12.785156 C 11.53125 12.734375 11.53125 12.679688 11.53125 12.628906 C 11.59375 12.597656 11.65625 12.566406 11.722656 12.535156 C 11.808594 12.496094 11.894531 12.453125 11.980469 12.410156 C 12.0625 12.371094 12.148438 12.332031 12.234375 12.289062 C 12.460938 12.164062 12.613281 12.035156 12.785156 11.84375 Z M 12.785156 11.84375 "/>
<path style=" stroke:none;fill-rule:nonzero;fill:rgb(60.392159%,45.882353%,19.215687%);fill-opacity:1;" d="M 1.882812 5.804688 C 1.910156 5.804688 1.933594 5.804688 1.960938 5.804688 C 1.96875 6.253906 1.96875 6.253906 1.882812 6.429688 C 1.875 6.570312 1.871094 6.710938 1.871094 6.851562 C 1.871094 6.976562 1.871094 6.976562 1.871094 7.109375 C 1.871094 7.195312 1.871094 7.285156 1.871094 7.378906 C 1.871094 7.464844 1.871094 7.550781 1.871094 7.640625 C 1.871094 8.132812 1.894531 8.609375 1.960938 9.097656 C 1.613281 8.792969 1.589844 8.398438 1.550781 7.957031 C 1.542969 7.75 1.539062 7.542969 1.539062 7.332031 C 1.539062 7.265625 1.535156 7.195312 1.535156 7.121094 C 1.53125 6.617188 1.644531 6.246094 1.882812 5.804688 Z M 1.882812 5.804688 "/>
<path style=" stroke:none;fill-rule:nonzero;fill:rgb(50.980395%,39.215687%,11.372549%);fill-opacity:1;" d="M 14.511719 2.429688 C 14.640625 2.429688 14.769531 2.429688 14.902344 2.429688 C 14.941406 2.632812 14.941406 2.632812 14.902344 2.902344 C 14.71875 3.121094 14.523438 3.308594 14.273438 3.449219 C 14.097656 3.425781 14.097656 3.425781 13.960938 3.371094 C 13.902344 3.238281 13.902344 3.238281 13.882812 3.058594 C 14.023438 2.832031 14.117188 2.695312 14.371094 2.601562 C 14.417969 2.597656 14.464844 2.59375 14.511719 2.589844 C 14.511719 2.535156 14.511719 2.484375 14.511719 2.429688 Z M 14.511719 2.429688 "/>
<path style=" stroke:none;fill-rule:nonzero;fill:rgb(69.01961%,58.823532%,16.862746%);fill-opacity:1;" d="M 7.585938 1.246094 C 7.675781 1.246094 7.675781 1.246094 7.765625 1.246094 C 7.953125 1.246094 8.140625 1.25 8.328125 1.25 C 8.457031 1.25 8.582031 1.25 8.710938 1.25 C 9.023438 1.25 9.335938 1.253906 9.648438 1.253906 C 9.648438 1.308594 9.648438 1.359375 9.648438 1.410156 C 9.746094 1.402344 9.847656 1.390625 9.949219 1.382812 C 10.429688 1.378906 10.757812 1.613281 11.136719 1.882812 C 10.980469 1.960938 10.980469 1.960938 10.796875 1.902344 C 10.722656 1.875 10.648438 1.84375 10.574219 1.8125 C 10.230469 1.683594 9.929688 1.601562 9.570312 1.570312 C 9.570312 1.515625 9.570312 1.464844 9.570312 1.410156 C 9.246094 1.410156 8.921875 1.40625 8.597656 1.40625 C 8.460938 1.40625 8.460938 1.40625 8.324219 1.40625 C 7.792969 1.402344 7.273438 1.421875 6.746094 1.488281 C 6.746094 1.4375 6.746094 1.386719 6.746094 1.332031 C 7.03125 1.238281 7.289062 1.246094 7.585938 1.246094 Z M 7.585938 1.246094 "/>
<path style=" stroke:none;fill-rule:nonzero;fill:rgb(44.705883%,39.215687%,14.901961%);fill-opacity:1;" d="M 10.351562 1.410156 C 10.121094 1.410156 9.886719 1.410156 9.648438 1.410156 C 9.648438 1.359375 9.648438 1.308594 9.648438 1.253906 C 8.585938 1.28125 7.523438 1.308594 6.429688 1.332031 C 7.375 0.703125 9.363281 0.917969 10.351562 1.410156 Z M 10.351562 1.410156 "/>
<path style=" stroke:none;fill-rule:nonzero;fill:rgb(14.509805%,9.803922%,0.392157%);fill-opacity:1;" d="M 6.589844 5.253906 C 6.613281 5.359375 6.640625 5.460938 6.667969 5.570312 C 6.585938 5.597656 6.585938 5.597656 6.507812 5.625 C 6.117188 5.773438 5.859375 5.894531 5.570312 6.195312 C 5.390625 6.175781 5.390625 6.175781 5.253906 6.117188 C 5.296875 5.839844 5.386719 5.730469 5.601562 5.554688 C 5.652344 5.515625 5.699219 5.472656 5.75 5.433594 C 6.027344 5.222656 6.246094 5.25 6.589844 5.253906 Z M 6.589844 5.253906 "/>
<path style=" stroke:none;fill-rule:nonzero;fill:rgb(82.745099%,58.039218%,12.54902%);fill-opacity:1;" d="M 5.253906 13.019531 C 5.523438 13.042969 5.789062 13.070312 6.058594 13.09375 C 6.132812 13.101562 6.210938 13.105469 6.289062 13.113281 C 6.363281 13.121094 6.433594 13.128906 6.511719 13.132812 C 6.578125 13.140625 6.644531 13.148438 6.714844 13.152344 C 6.902344 13.175781 6.902344 13.175781 7.046875 13.214844 C 7.289062 13.273438 7.53125 13.28125 7.777344 13.296875 C 7.832031 13.300781 7.886719 13.304688 7.941406 13.308594 C 8.109375 13.316406 8.28125 13.328125 8.449219 13.339844 C 8.566406 13.34375 8.683594 13.351562 8.796875 13.359375 C 9.082031 13.378906 9.363281 13.394531 9.648438 13.410156 C 9.648438 13.4375 9.648438 13.464844 9.648438 13.488281 C 6.078125 13.566406 6.078125 13.566406 5.253906 13.019531 Z M 5.253906 13.019531 "/>
<path style=" stroke:none;fill-rule:nonzero;fill:rgb(66.274512%,49.411765%,11.372549%);fill-opacity:1;" d="M 2.589844 1.019531 C 2.800781 0.988281 2.800781 0.988281 3.058594 1.019531 C 3.359375 1.289062 3.441406 1.390625 3.476562 1.792969 C 3.464844 1.914062 3.464844 1.914062 3.449219 2.039062 C 3.269531 2.058594 3.269531 2.058594 3.058594 2.039062 C 2.917969 1.914062 2.917969 1.914062 2.800781 1.75 C 2.738281 1.667969 2.738281 1.667969 2.675781 1.585938 C 2.574219 1.382812 2.570312 1.246094 2.589844 1.019531 Z M 2.589844 1.019531 "/>
<path style=" stroke:none;fill-rule:nonzero;fill:rgb(92.156863%,85.09804%,35.686275%);fill-opacity:1;" d="M 10.039062 4.941406 C 10.066406 4.992188 10.089844 5.042969 10.117188 5.097656 C 9.960938 5.125 9.808594 5.148438 9.648438 5.175781 C 9.648438 5.28125 9.648438 5.382812 9.648438 5.488281 C 9.730469 5.496094 9.8125 5.503906 9.898438 5.511719 C 10.222656 5.574219 10.34375 5.671875 10.589844 5.882812 C 10.664062 5.882812 10.742188 5.882812 10.824219 5.882812 C 10.78125 5.585938 10.652344 5.453125 10.429688 5.253906 C 10.613281 5.28125 10.792969 5.308594 10.980469 5.332031 C 10.980469 5.570312 10.980469 5.804688 10.980469 6.039062 C 10.769531 6.144531 10.585938 6.121094 10.351562 6.117188 C 10.328125 6.039062 10.300781 5.960938 10.273438 5.882812 C 10.136719 5.832031 10.136719 5.832031 9.960938 5.804688 C 9.804688 5.753906 9.648438 5.699219 9.488281 5.648438 C 9.464844 5.464844 9.4375 5.285156 9.410156 5.097656 C 9.664062 4.929688 9.746094 4.925781 10.039062 4.941406 Z M 10.039062 4.941406 "/>
<path style=" stroke:none;fill-rule:nonzero;fill:rgb(70.19608%,53.333336%,13.333334%);fill-opacity:1;" d="M 1.570312 2.039062 C 1.875 2.085938 2.042969 2.234375 2.273438 2.429688 C 2.335938 2.46875 2.394531 2.507812 2.457031 2.550781 C 2.519531 2.605469 2.519531 2.605469 2.589844 2.667969 C 2.589844 2.769531 2.589844 2.875 2.589844 2.980469 C 2.417969 3.039062 2.417969 3.039062 2.195312 3.058594 C 1.902344 2.875 1.679688 2.644531 1.488281 2.351562 C 1.511719 2.171875 1.511719 2.171875 1.570312 2.039062 Z M 1.570312 2.039062 "/>
<path style=" stroke:none;fill-rule:nonzero;fill:rgb(13.725491%,10.588235%,1.176471%);fill-opacity:1;" d="M 9.570312 5.175781 C 10.074219 5.140625 10.324219 5.203125 10.746094 5.488281 C 10.796875 5.542969 10.847656 5.59375 10.902344 5.648438 C 10.871094 5.8125 10.871094 5.8125 10.824219 5.960938 C 10.628906 5.925781 10.519531 5.890625 10.367188 5.765625 C 10.136719 5.605469 9.921875 5.59375 9.648438 5.570312 C 9.621094 5.4375 9.59375 5.308594 9.570312 5.175781 Z M 9.570312 5.175781 "/>
<path style=" stroke:none;fill-rule:nonzero;fill:rgb(63.921571%,54.509807%,17.647059%);fill-opacity:1;" d="M 4.628906 2.429688 C 4.558594 2.480469 4.492188 2.53125 4.421875 2.582031 C 3.914062 2.960938 3.449219 3.332031 3.058594 3.84375 C 2.980469 3.6875 2.980469 3.6875 3.023438 3.550781 C 3.277344 3.039062 3.550781 2.65625 4.09375 2.4375 C 4.390625 2.351562 4.390625 2.351562 4.628906 2.429688 Z M 4.628906 2.429688 "/>
<path style=" stroke:none;fill-rule:nonzero;fill:rgb(81.568629%,61.176473%,13.725491%);fill-opacity:1;" d="M 13.410156 1.253906 C 13.542969 1.253906 13.671875 1.253906 13.804688 1.253906 C 13.867188 1.382812 13.867188 1.382812 13.882812 1.570312 C 13.757812 1.730469 13.625 1.886719 13.488281 2.039062 C 13.464844 2.117188 13.4375 2.195312 13.410156 2.273438 C 13.28125 2.273438 13.152344 2.273438 13.019531 2.273438 C 12.957031 2.101562 12.957031 2.101562 12.941406 1.882812 C 13.128906 1.675781 13.128906 1.675781 13.332031 1.488281 C 13.359375 1.414062 13.386719 1.335938 13.410156 1.253906 Z M 13.410156 1.253906 "/>
<path style=" stroke:none;fill-rule:nonzero;fill:rgb(88.627452%,65.882355%,21.568628%);fill-opacity:1;" d="M 1.960938 5.804688 C 2.160156 6.105469 2.109375 6.207031 2.050781 6.558594 C 1.957031 7.132812 1.898438 7.664062 2.039062 8.234375 C 2.121094 8.632812 2.125 9.007812 2.117188 9.410156 C 1.730469 8.832031 1.78125 8.074219 1.785156 7.402344 C 1.785156 7.316406 1.78125 7.234375 1.78125 7.144531 C 1.785156 6.671875 1.820312 6.257812 1.960938 5.804688 Z M 1.960938 5.804688 "/>
<path style=" stroke:none;fill-rule:nonzero;fill:rgb(42.745098%,31.764707%,16.078432%);fill-opacity:1;" d="M 12.078125 12.785156 C 12.128906 12.808594 12.183594 12.835938 12.234375 12.863281 C 11.316406 13.367188 10.328125 13.742188 9.265625 13.730469 C 9.1875 13.730469 9.113281 13.730469 9.035156 13.726562 C 8.976562 13.726562 8.921875 13.726562 8.863281 13.726562 C 8.863281 13.699219 8.863281 13.671875 8.863281 13.648438 C 8.941406 13.636719 9.019531 13.625 9.101562 13.617188 C 9.203125 13.601562 9.300781 13.585938 9.40625 13.574219 C 9.507812 13.558594 9.609375 13.546875 9.714844 13.53125 C 9.949219 13.515625 9.949219 13.515625 10.039062 13.410156 C 10.144531 13.390625 10.25 13.375 10.359375 13.359375 C 10.8125 13.273438 11.230469 13.109375 11.65625 12.9375 C 11.796875 12.882812 11.9375 12.832031 12.078125 12.785156 Z M 12.078125 12.785156 "/>
<path style=" stroke:none;fill-rule:nonzero;fill:rgb(90.196079%,68.235296%,16.862746%);fill-opacity:1;" d="M 13.960938 10.117188 C 14.039062 10.117188 14.117188 10.117188 14.195312 10.117188 C 14.144531 10.386719 14.039062 10.59375 13.898438 10.828125 C 13.839844 10.929688 13.839844 10.929688 13.777344 11.03125 C 13.644531 11.21875 13.519531 11.328125 13.332031 11.449219 C 13.332031 11.375 13.332031 11.296875 13.332031 11.214844 C 13.179688 11.292969 13.179688 11.292969 13.019531 11.371094 C 13.144531 11.070312 13.339844 10.894531 13.570312 10.667969 C 13.640625 10.566406 13.707031 10.46875 13.773438 10.367188 C 13.835938 10.285156 13.898438 10.203125 13.960938 10.117188 Z M 13.960938 10.117188 "/>
<path style=" stroke:none;fill-rule:nonzero;fill:rgb(88.627452%,78.823531%,26.274511%);fill-opacity:1;" d="M 8 7.53125 C 8.265625 7.644531 8.425781 7.792969 8.628906 8 C 8.730469 8.082031 8.835938 8.160156 8.941406 8.234375 C 8.53125 8.265625 8.285156 8.175781 7.921875 8 C 7.890625 8.050781 7.859375 8.105469 7.828125 8.15625 C 7.6875 8.3125 7.6875 8.3125 7.476562 8.332031 C 7.414062 8.328125 7.355469 8.320312 7.292969 8.3125 C 7.402344 8.195312 7.402344 8.195312 7.53125 8.078125 C 7.582031 8.078125 7.632812 8.078125 7.6875 8.078125 C 7.707031 8.03125 7.730469 7.984375 7.753906 7.9375 C 7.84375 7.765625 7.84375 7.765625 8 7.53125 Z M 8 7.53125 "/>
<path style=" stroke:none;fill-rule:nonzero;fill:rgb(56.078434%,47.058824%,16.470589%);fill-opacity:1;" d="M 12.15625 2.589844 C 12.261719 2.589844 12.363281 2.589844 12.46875 2.589844 C 12.46875 2.640625 12.46875 2.691406 12.46875 2.746094 C 12.574219 2.753906 12.574219 2.753906 12.683594 2.761719 C 12.996094 2.835938 13.105469 2.949219 13.324219 3.179688 C 13.386719 3.246094 13.445312 3.3125 13.507812 3.378906 C 13.554688 3.429688 13.601562 3.476562 13.648438 3.53125 C 13.621094 3.582031 13.59375 3.632812 13.570312 3.6875 C 13.003906 3.445312 12.578125 3.027344 12.15625 2.589844 Z M 12.15625 2.589844 "/>
<path style=" stroke:none;fill-rule:nonzero;fill:rgb(19.607843%,13.333334%,1.568628%);fill-opacity:1;" d="M 5.882812 7.292969 C 6.011719 7.320312 6.140625 7.347656 6.273438 7.371094 C 6.273438 7.6875 6.273438 8 6.273438 8.3125 C 6.027344 8.207031 5.960938 8.15625 5.804688 7.921875 C 5.777344 7.503906 5.777344 7.503906 5.882812 7.292969 Z M 5.882812 7.292969 "/>
<path style=" stroke:none;fill-rule:nonzero;fill:rgb(50.980395%,36.862746%,12.156863%);fill-opacity:1;" d="M 3.53125 12 C 3.585938 12.035156 3.644531 12.074219 3.703125 12.113281 C 3.78125 12.160156 3.855469 12.210938 3.9375 12.261719 C 4.011719 12.308594 4.085938 12.355469 4.164062 12.40625 C 4.3125 12.496094 4.457031 12.585938 4.605469 12.675781 C 4.785156 12.785156 4.785156 12.785156 4.941406 12.941406 C 4.242188 12.914062 4.242188 12.914062 3.925781 12.726562 C 3.53125 12.292969 3.53125 12.292969 3.53125 12 Z M 3.53125 12 "/>
<path style=" stroke:none;fill-rule:nonzero;fill:rgb(85.490197%,77.64706%,31.764707%);fill-opacity:1;" d="M 7.765625 6.117188 C 7.789062 6.117188 7.816406 6.117188 7.84375 6.117188 C 7.894531 6.777344 7.796875 7.285156 7.367188 7.804688 C 7.132812 7.984375 6.9375 8.007812 6.652344 8.003906 C 6.503906 8.003906 6.503906 8.003906 6.351562 8 C 6.351562 7.972656 6.351562 7.949219 6.351562 7.921875 C 6.441406 7.910156 6.53125 7.902344 6.621094 7.890625 C 6.714844 7.875 6.808594 7.859375 6.902344 7.84375 C 6.929688 7.792969 6.953125 7.738281 6.980469 7.6875 C 7.082031 7.6875 7.1875 7.6875 7.292969 7.6875 C 7.316406 7.617188 7.335938 7.546875 7.359375 7.476562 C 7.449219 7.214844 7.449219 7.214844 7.574219 7.035156 C 7.730469 6.738281 7.742188 6.449219 7.765625 6.117188 Z M 7.765625 6.117188 "/>
<path style=" stroke:none;fill-rule:nonzero;fill:rgb(87.450981%,63.529414%,11.764706%);fill-opacity:1;" d="M 2.429688 10.429688 C 2.582031 10.484375 2.582031 10.484375 2.746094 10.589844 C 2.757812 10.652344 2.769531 10.71875 2.78125 10.785156 C 2.792969 10.847656 2.808594 10.914062 2.824219 10.980469 C 3.019531 11.089844 3.019531 11.089844 3.214844 11.136719 C 3.214844 11.214844 3.214844 11.292969 3.214844 11.371094 C 3.265625 11.371094 3.320312 11.371094 3.371094 11.371094 C 3.398438 11.527344 3.425781 11.683594 3.449219 11.84375 C 3.027344 11.445312 2.609375 10.996094 2.429688 10.429688 Z M 2.429688 10.429688 "/>
<path style=" stroke:none;fill-rule:nonzero;fill:rgb(84.705883%,75.686276%,33.333334%);fill-opacity:1;" d="M 5.253906 5.570312 C 5.410156 5.609375 5.410156 5.609375 5.570312 5.648438 C 5.511719 5.699219 5.511719 5.699219 5.449219 5.75 C 5.308594 5.882812 5.308594 5.882812 5.332031 6.117188 C 5.558594 6.085938 5.65625 6.03125 5.832031 5.882812 C 6.066406 5.707031 6.222656 5.671875 6.511719 5.648438 C 6.433594 5.6875 6.433594 5.6875 6.351562 5.726562 C 6.351562 5.777344 6.351562 5.828125 6.351562 5.882812 C 6.078125 6.113281 5.816406 6.265625 5.457031 6.304688 C 5.253906 6.273438 5.253906 6.273438 5.175781 6.195312 C 5.15625 5.761719 5.15625 5.761719 5.253906 5.570312 Z M 5.253906 5.570312 "/>
<path style=" stroke:none;fill-rule:nonzero;fill:rgb(96.862745%,86.666667%,33.725491%);fill-opacity:1;" d="M 4.550781 2.429688 C 4.625 2.457031 4.703125 2.484375 4.785156 2.511719 C 4.746094 2.539062 4.703125 2.570312 4.664062 2.597656 C 4.164062 2.96875 4.164062 2.96875 3.6875 3.371094 C 3.6875 3.425781 3.6875 3.476562 3.6875 3.53125 C 3.632812 3.53125 3.582031 3.53125 3.53125 3.53125 C 3.53125 3.582031 3.53125 3.632812 3.53125 3.6875 C 3.398438 3.738281 3.269531 3.789062 3.136719 3.84375 C 3.347656 3.371094 3.675781 3.0625 4.082031 2.753906 C 4.164062 2.691406 4.246094 2.628906 4.332031 2.5625 C 4.4375 2.5 4.4375 2.5 4.550781 2.429688 Z M 4.550781 2.429688 "/>
<path style=" stroke:none;fill-rule:nonzero;fill:rgb(17.647059%,14.117648%,2.745098%);fill-opacity:1;" d="M 6.589844 5.253906 C 6.613281 5.359375 6.640625 5.460938 6.667969 5.570312 C 6.316406 5.683594 6.316406 5.683594 5.960938 5.804688 C 5.960938 5.699219 5.960938 5.597656 5.960938 5.488281 C 5.910156 5.464844 5.855469 5.4375 5.804688 5.410156 C 6.089844 5.222656 6.253906 5.242188 6.589844 5.253906 Z M 6.589844 5.253906 "/>
<path style=" stroke:none;fill-rule:nonzero;fill:rgb(46.27451%,38.431373%,17.647059%);fill-opacity:1;" d="M 2.039062 4.785156 C 2.066406 4.785156 2.089844 4.785156 2.117188 4.785156 C 2.101562 5.425781 1.914062 5.933594 1.648438 6.511719 C 1.457031 5.957031 1.804688 5.289062 2.039062 4.785156 Z M 2.039062 4.785156 "/>
<path style=" stroke:none;fill-rule:nonzero;fill:rgb(90.588236%,67.058825%,12.941177%);fill-opacity:1;" d="M 14.746094 2.589844 C 14.71875 2.835938 14.679688 2.964844 14.523438 3.160156 C 14.351562 3.292969 14.351562 3.292969 14.039062 3.292969 C 14.050781 3.117188 14.050781 3.117188 14.117188 2.902344 C 14.515625 2.589844 14.515625 2.589844 14.746094 2.589844 Z M 14.746094 2.589844 "/>
<path style=" stroke:none;fill-rule:nonzero;fill:rgb(89.411765%,63.921571%,7.450981%);fill-opacity:1;" d="M 3.371094 11.371094 C 3.449219 11.433594 3.449219 11.433594 3.523438 11.496094 C 3.835938 11.746094 4.152344 11.988281 4.46875 12.234375 C 4.445312 12.3125 4.417969 12.390625 4.390625 12.46875 C 4.160156 12.371094 4.160156 12.371094 3.921875 12.234375 C 3.851562 12.0625 3.851562 12.0625 3.84375 11.921875 C 3.714844 11.894531 3.585938 11.871094 3.449219 11.84375 C 3.425781 11.6875 3.398438 11.53125 3.371094 11.371094 Z M 3.371094 11.371094 "/>
<path style=" stroke:none;fill-rule:nonzero;fill:rgb(53.725493%,43.921569%,15.686275%);fill-opacity:1;" d="M 11.765625 2.039062 C 12.066406 2.144531 12.285156 2.28125 12.535156 2.480469 C 12.628906 2.554688 12.628906 2.554688 12.722656 2.628906 C 12.769531 2.667969 12.816406 2.707031 12.863281 2.746094 C 12.707031 2.824219 12.707031 2.824219 12.46875 2.746094 C 12.46875 2.691406 12.46875 2.640625 12.46875 2.589844 C 12.414062 2.59375 12.355469 2.601562 12.292969 2.609375 C 12.078125 2.589844 12.078125 2.589844 11.898438 2.445312 C 11.765625 2.273438 11.765625 2.273438 11.765625 2.039062 Z M 11.765625 2.039062 "/>
<path style=" stroke:none;fill-rule:nonzero;fill:rgb(60.000002%,45.490196%,13.725491%);fill-opacity:1;" d="M 14.511719 9.253906 C 14.5625 9.253906 14.613281 9.253906 14.667969 9.253906 C 14.613281 9.515625 14.5625 9.773438 14.511719 10.039062 C 14.457031 10.039062 14.40625 10.039062 14.351562 10.039062 C 14.351562 10.167969 14.351562 10.296875 14.351562 10.429688 C 14.273438 10.457031 14.199219 10.484375 14.117188 10.511719 C 14.117188 10.585938 14.117188 10.664062 14.117188 10.746094 C 14.066406 10.746094 14.015625 10.746094 13.960938 10.746094 C 14.121094 10.238281 14.308594 9.746094 14.511719 9.253906 Z M 14.511719 9.253906 "/>
<path style=" stroke:none;fill-rule:nonzero;fill:rgb(2.745098%,1.568628%,0%);fill-opacity:1;" d="M 6.195312 8 C 6.558594 8 6.921875 8 7.292969 8 C 7.292969 8.050781 7.292969 8.105469 7.292969 8.15625 C 7.054688 8.296875 6.882812 8.332031 6.609375 8.324219 C 6.546875 8.320312 6.484375 8.320312 6.417969 8.320312 C 6.371094 8.316406 6.324219 8.316406 6.273438 8.3125 C 6.25 8.210938 6.222656 8.105469 6.195312 8 Z M 6.195312 8 "/>
<path style=" stroke:none;fill-rule:nonzero;fill:rgb(98.823529%,84.313726%,22.352941%);fill-opacity:1;" d="M 6.351562 7.53125 C 6.585938 7.53125 6.820312 7.53125 7.058594 7.53125 C 7.085938 7.632812 7.109375 7.738281 7.136719 7.84375 C 6.863281 7.933594 6.636719 7.925781 6.351562 7.921875 C 6.351562 7.792969 6.351562 7.664062 6.351562 7.53125 Z M 6.351562 7.53125 "/>
<path style=" stroke:none;fill-rule:nonzero;fill:rgb(70.588237%,59.215689%,17.254902%);fill-opacity:1;" d="M 13.175781 3.53125 C 13.425781 3.574219 13.597656 3.613281 13.746094 3.828125 C 13.863281 4.0625 13.957031 4.296875 14.039062 4.550781 C 14.089844 4.550781 14.144531 4.550781 14.195312 4.550781 C 14.195312 4.679688 14.195312 4.808594 14.195312 4.941406 C 13.824219 4.496094 13.5 4.011719 13.175781 3.53125 Z M 13.175781 3.53125 "/>
<path style=" stroke:none;fill-rule:nonzero;fill:rgb(93.725491%,82.745099%,28.627452%);fill-opacity:1;" d="M 10.039062 8.078125 C 9.890625 8.382812 9.890625 8.382812 9.804688 8.46875 C 9.660156 8.464844 9.511719 8.453125 9.367188 8.4375 C 9.25 8.425781 9.25 8.425781 9.128906 8.410156 C 9.035156 8.402344 9.035156 8.402344 8.941406 8.390625 C 8.941406 8.339844 8.941406 8.289062 8.941406 8.234375 C 9.066406 8.207031 9.191406 8.183594 9.3125 8.15625 C 9.382812 8.140625 9.453125 8.128906 9.523438 8.113281 C 9.726562 8.078125 9.726562 8.078125 10.039062 8.078125 Z M 10.039062 8.078125 "/>
<path style=" stroke:none;fill-rule:nonzero;fill:rgb(88.627452%,80.392158%,33.333334%);fill-opacity:1;" d="M 10.429688 5.253906 C 10.613281 5.28125 10.792969 5.308594 10.980469 5.332031 C 10.980469 5.570312 10.980469 5.804688 10.980469 6.039062 C 10.769531 6.144531 10.585938 6.121094 10.351562 6.117188 C 10.328125 6.066406 10.300781 6.015625 10.273438 5.960938 C 10.328125 5.960938 10.378906 5.960938 10.429688 5.960938 C 10.457031 5.910156 10.484375 5.855469 10.511719 5.804688 C 10.613281 5.828125 10.71875 5.855469 10.824219 5.882812 C 10.78125 5.585938 10.652344 5.453125 10.429688 5.253906 Z M 10.429688 5.253906 "/>
<path style=" stroke:none;fill-rule:nonzero;fill:rgb(83.137256%,57.647061%,11.372549%);fill-opacity:1;" d="M 10.667969 13.097656 C 10.613281 13.097656 10.5625 13.097656 10.511719 13.097656 C 10.511719 13.175781 10.511719 13.253906 10.511719 13.332031 C 10.226562 13.359375 9.941406 13.386719 9.648438 13.410156 C 9.699219 13.308594 9.75 13.203125 9.804688 13.097656 C 10.109375 13.023438 10.367188 12.988281 10.667969 13.097656 Z M 10.667969 13.097656 "/>
<path style=" stroke:none;fill-rule:nonzero;fill:rgb(42.745098%,32.941177%,17.647059%);fill-opacity:1;" d="M 14.511719 9.882812 C 14.589844 10.117188 14.589844 10.117188 14.480469 10.378906 C 14.429688 10.476562 14.378906 10.578125 14.328125 10.675781 C 14.289062 10.753906 14.289062 10.753906 14.253906 10.828125 C 14.058594 11.203125 14.058594 11.203125 13.882812 11.292969 C 13.910156 11.113281 13.933594 10.933594 13.960938 10.746094 C 14.011719 10.746094 14.0625 10.746094 14.117188 10.746094 C 14.117188 10.667969 14.117188 10.589844 14.117188 10.511719 C 14.167969 10.484375 14.222656 10.457031 14.273438 10.429688 C 14.324219 10.234375 14.324219 10.234375 14.351562 10.039062 C 14.40625 10.039062 14.457031 10.039062 14.511719 10.039062 C 14.511719 9.988281 14.511719 9.9375 14.511719 9.882812 Z M 14.511719 9.882812 "/>
<path style=" stroke:none;fill-rule:nonzero;fill:rgb(83.92157%,60.000002%,14.117648%);fill-opacity:1;" d="M 3.449219 11.84375 C 3.644531 11.882812 3.644531 11.882812 3.84375 11.921875 C 3.867188 12.023438 3.894531 12.128906 3.921875 12.234375 C 3.960938 12.242188 4.003906 12.25 4.042969 12.253906 C 4.316406 12.339844 4.539062 12.480469 4.785156 12.628906 C 4.785156 12.679688 4.785156 12.730469 4.785156 12.785156 C 4.5 12.734375 4.308594 12.613281 4.074219 12.445312 C 4.007812 12.398438 3.9375 12.351562 3.871094 12.304688 C 3.695312 12.164062 3.574219 12.027344 3.449219 11.84375 Z M 3.449219 11.84375 "/>
<path style=" stroke:none;fill-rule:nonzero;fill:rgb(87.843138%,66.274512%,14.901961%);fill-opacity:1;" d="M 1.570312 2.039062 C 1.792969 2.085938 1.871094 2.105469 2.039062 2.273438 C 2.039062 2.351562 2.039062 2.429688 2.039062 2.511719 C 2.089844 2.511719 2.144531 2.511719 2.195312 2.511719 C 2.195312 2.5625 2.195312 2.613281 2.195312 2.667969 C 1.667969 2.53125 1.667969 2.53125 1.488281 2.351562 C 1.519531 2.1875 1.519531 2.1875 1.570312 2.039062 Z M 1.570312 2.039062 "/>
<path style=" stroke:none;fill-rule:nonzero;fill:rgb(49.803922%,40.784314%,19.215687%);fill-opacity:1;" d="M 14.429688 5.175781 C 14.457031 5.226562 14.484375 5.28125 14.511719 5.332031 C 14.5625 5.332031 14.613281 5.332031 14.667969 5.332031 C 14.707031 5.457031 14.746094 5.582031 14.785156 5.707031 C 14.804688 5.773438 14.828125 5.84375 14.851562 5.914062 C 14.902344 6.117188 14.902344 6.117188 14.902344 6.429688 C 14.851562 6.429688 14.796875 6.429688 14.746094 6.429688 C 14.691406 6.28125 14.640625 6.132812 14.589844 5.980469 C 14.558594 5.898438 14.53125 5.8125 14.5 5.726562 C 14.429688 5.488281 14.429688 5.488281 14.429688 5.175781 Z M 14.429688 5.175781 "/>
<path style=" stroke:none;fill-rule:nonzero;fill:rgb(18.82353%,14.117648%,1.960784%);fill-opacity:1;" d="M 10.195312 7.058594 C 10.214844 7.578125 10.214844 7.578125 10.039062 7.84375 C 10.011719 7.738281 9.988281 7.636719 9.960938 7.53125 C 9.84375 7.605469 9.84375 7.605469 9.726562 7.6875 C 9.804688 7.058594 9.804688 7.058594 10.195312 7.058594 Z M 10.195312 7.058594 "/>
<path style=" stroke:none;fill-rule:nonzero;fill:rgb(69.803923%,52.549022%,16.078432%);fill-opacity:1;" d="M 1.882812 5.804688 C 1.910156 5.804688 1.933594 5.804688 1.960938 5.804688 C 1.96875 6.253906 1.96875 6.253906 1.882812 6.429688 C 1.871094 6.542969 1.863281 6.660156 1.859375 6.773438 C 1.855469 6.839844 1.851562 6.90625 1.847656 6.976562 C 1.84375 7.042969 1.839844 7.113281 1.839844 7.1875 C 1.835938 7.257812 1.832031 7.328125 1.828125 7.398438 C 1.820312 7.574219 1.8125 7.746094 1.804688 7.921875 C 1.777344 7.921875 1.753906 7.921875 1.726562 7.921875 C 1.722656 7.628906 1.71875 7.332031 1.714844 7.039062 C 1.714844 6.957031 1.714844 6.871094 1.710938 6.785156 C 1.710938 6.707031 1.710938 6.625 1.710938 6.542969 C 1.710938 6.46875 1.707031 6.394531 1.707031 6.320312 C 1.726562 6.109375 1.777344 5.984375 1.882812 5.804688 Z M 1.882812 5.804688 "/>
<path style=" stroke:none;fill-rule:nonzero;fill:rgb(50.196081%,41.960785%,16.862746%);fill-opacity:1;" d="M 5.019531 1.882812 C 5.019531 2.039062 5.019531 2.039062 4.910156 2.191406 C 4.613281 2.425781 4.285156 2.496094 3.921875 2.589844 C 4.199219 2.285156 4.578125 1.882812 5.019531 1.882812 Z M 5.019531 1.882812 "/>
<path style=" stroke:none;fill-rule:nonzero;fill:rgb(92.54902%,68.627453%,20.392157%);fill-opacity:1;" d="M 1.882812 7.84375 C 1.960938 7.882812 1.960938 7.882812 2.039062 7.921875 C 2.035156 8.078125 2.035156 8.238281 2.03125 8.394531 C 2.027344 8.554688 2.027344 8.554688 2.117188 8.707031 C 2.125 8.828125 2.125 8.949219 2.121094 9.070312 C 2.121094 9.132812 2.121094 9.195312 2.121094 9.261719 C 2.121094 9.3125 2.117188 9.359375 2.117188 9.410156 C 1.875 9.046875 1.871094 8.722656 1.878906 8.289062 C 1.878906 8.207031 1.878906 8.121094 1.878906 8.035156 C 1.878906 7.972656 1.882812 7.910156 1.882812 7.84375 Z M 1.882812 7.84375 "/>
<path style=" stroke:none;fill-rule:nonzero;fill:rgb(98.823529%,83.529413%,23.529412%);fill-opacity:1;" d="M 10.667969 6.980469 C 10.6875 7.578125 10.6875 7.578125 10.511719 7.84375 C 10.351562 7.6875 10.351562 7.6875 10.335938 7.535156 C 10.347656 6.980469 10.347656 6.980469 10.667969 6.980469 Z M 10.667969 6.980469 "/>
<path style=" stroke:none;fill-rule:nonzero;fill:rgb(98.823529%,86.666667%,28.235295%);fill-opacity:1;" d="M 8.390625 6.117188 C 8.445312 6.117188 8.496094 6.117188 8.550781 6.117188 C 8.550781 6.167969 8.550781 6.222656 8.550781 6.273438 C 8.601562 6.300781 8.652344 6.328125 8.707031 6.351562 C 8.652344 6.585938 8.601562 6.820312 8.550781 7.058594 C 8.496094 7.058594 8.445312 7.058594 8.390625 7.058594 C 8.390625 6.75 8.390625 6.4375 8.390625 6.117188 Z M 8.390625 6.117188 "/>
<path style=" stroke:none;fill-rule:nonzero;fill:rgb(68.627453%,56.470591%,16.862746%);fill-opacity:1;" d="M 2.429688 4.46875 C 2.484375 4.496094 2.535156 4.523438 2.589844 4.550781 C 2.5625 4.601562 2.535156 4.652344 2.507812 4.703125 C 2.324219 5.066406 2.152344 5.414062 2.039062 5.804688 C 1.921875 5.449219 2.007812 5.136719 2.117188 4.785156 C 2.285156 4.578125 2.285156 4.578125 2.429688 4.46875 Z M 2.429688 4.46875 "/>
<path style=" stroke:none;fill-rule:nonzero;fill:rgb(82.745099%,73.725492%,25.490198%);fill-opacity:1;" d="M 10.195312 7.136719 C 10.222656 7.136719 10.246094 7.136719 10.273438 7.136719 C 10.300781 7.421875 10.328125 7.707031 10.351562 8 C 10.273438 8.050781 10.199219 8.105469 10.117188 8.15625 C 10.039062 8.105469 9.960938 8.054688 9.882812 8 C 9.917969 7.945312 9.957031 7.890625 9.996094 7.832031 C 10.125 7.59375 10.164062 7.40625 10.195312 7.136719 Z M 10.195312 7.136719 "/>
<path style=" stroke:none;fill-rule:nonzero;fill:rgb(89.019608%,74.509805%,28.235295%);fill-opacity:1;" d="M 5.726562 7.292969 C 5.777344 7.292969 5.828125 7.292969 5.882812 7.292969 C 5.878906 7.390625 5.871094 7.484375 5.867188 7.582031 C 5.867188 7.886719 5.929688 8.066406 6.117188 8.3125 C 5.882812 8.3125 5.882812 8.3125 5.746094 8.199219 C 5.597656 7.894531 5.667969 7.621094 5.726562 7.292969 Z M 5.726562 7.292969 "/>
<path style=" stroke:none;fill-rule:nonzero;fill:rgb(97.254902%,86.666667%,33.725491%);fill-opacity:1;" d="M 13.097656 3.53125 C 13.550781 3.890625 13.550781 3.890625 13.726562 4.15625 C 13.726562 4.234375 13.726562 4.3125 13.726562 4.390625 C 13.488281 4.3125 13.488281 4.3125 13.332031 4.15625 C 13.320312 4.105469 13.3125 4.054688 13.300781 4.003906 C 13.246094 3.8125 13.167969 3.738281 13.019531 3.609375 C 13.046875 3.582031 13.070312 3.554688 13.097656 3.53125 Z M 13.097656 3.53125 "/>
<path style=" stroke:none;fill-rule:nonzero;fill:rgb(40.392157%,32.549021%,15.294118%);fill-opacity:1;" d="M 14.667969 8.785156 C 14.746094 8.785156 14.820312 8.785156 14.902344 8.785156 C 14.863281 9.175781 14.804688 9.511719 14.667969 9.882812 C 14.640625 9.882812 14.613281 9.882812 14.589844 9.882812 C 14.613281 9.519531 14.640625 9.15625 14.667969 8.785156 Z M 14.667969 8.785156 "/>
<path style=" stroke:none;fill-rule:nonzero;fill:rgb(97.254902%,76.862746%,17.647059%);fill-opacity:1;" d="M 5.648438 8 C 5.75 8.128906 5.855469 8.257812 5.960938 8.390625 C 5.804688 8.550781 5.804688 8.550781 5.570312 8.628906 C 5.542969 8.679688 5.515625 8.730469 5.488281 8.785156 C 5.4375 8.785156 5.386719 8.785156 5.332031 8.785156 C 5.4375 8.523438 5.542969 8.261719 5.648438 8 Z M 5.648438 8 "/>
<path style=" stroke:none;fill-rule:nonzero;fill:rgb(98.431373%,87.058824%,26.666668%);fill-opacity:1;" d="M 6.667969 5.882812 C 6.484375 6.101562 6.339844 6.160156 6.0625 6.210938 C 6 6.222656 5.9375 6.234375 5.871094 6.25 C 5.800781 6.261719 5.800781 6.261719 5.726562 6.273438 C 6.234375 5.726562 6.234375 5.726562 6.667969 5.882812 Z M 6.667969 5.882812 "/>
<path style=" stroke:none;fill-rule:nonzero;fill:rgb(98.823529%,84.313726%,21.960784%);fill-opacity:1;" d="M 7.921875 7.921875 C 8.078125 8 8.230469 8.078125 8.390625 8.15625 C 8.289062 8.261719 8.183594 8.363281 8.078125 8.46875 C 7.960938 8.367188 7.960938 8.367188 7.84375 8.234375 C 7.84375 8 7.84375 8 7.921875 7.921875 Z M 7.921875 7.921875 "/>
<path style=" stroke:none;fill-rule:nonzero;fill:rgb(87.450981%,80.000001%,33.333334%);fill-opacity:1;" d="M 8.390625 7.058594 C 8.46875 7.058594 8.546875 7.058594 8.628906 7.058594 C 8.703125 7.195312 8.777344 7.335938 8.847656 7.472656 C 8.945312 7.632812 8.945312 7.632812 9.175781 7.765625 C 8.96875 7.753906 8.828125 7.726562 8.671875 7.582031 C 8.390625 7.253906 8.390625 7.253906 8.390625 7.058594 Z M 8.390625 7.058594 "/>
<path style=" stroke:none;fill-rule:nonzero;fill:rgb(91.37255%,84.313726%,37.64706%);fill-opacity:1;" d="M 6.128906 5.171875 C 6.199219 5.171875 6.269531 5.171875 6.34375 5.171875 C 6.398438 5.175781 6.453125 5.175781 6.511719 5.175781 C 6.511719 5.203125 6.511719 5.226562 6.511719 5.253906 C 6.414062 5.277344 6.320312 5.300781 6.21875 5.324219 C 5.96875 5.386719 5.730469 5.464844 5.488281 5.570312 C 5.519531 5.417969 5.519531 5.417969 5.570312 5.253906 C 5.765625 5.15625 5.90625 5.167969 6.128906 5.171875 Z M 6.128906 5.171875 "/>
<path style=" stroke:none;fill-rule:nonzero;fill:rgb(60.000002%,41.568628%,8.627451%);fill-opacity:1;" d="M 13.019531 11.84375 C 13.019531 12.121094 12.96875 12.195312 12.785156 12.390625 C 12.707031 12.390625 12.628906 12.390625 12.550781 12.390625 C 12.550781 12.445312 12.550781 12.496094 12.550781 12.550781 C 12.445312 12.523438 12.34375 12.496094 12.234375 12.46875 C 12.609375 12.15625 12.609375 12.15625 12.785156 12.15625 C 12.785156 12.105469 12.785156 12.054688 12.785156 12 C 12.863281 11.949219 12.941406 11.894531 13.019531 11.84375 Z M 13.019531 11.84375 "/>
<path style=" stroke:none;fill-rule:nonzero;fill:rgb(92.54902%,69.803923%,11.372549%);fill-opacity:1;" d="M 13.726562 10.667969 C 13.726562 10.746094 13.726562 10.820312 13.726562 10.902344 C 13.671875 10.902344 13.621094 10.902344 13.570312 10.902344 C 13.550781 10.964844 13.53125 11.027344 13.515625 11.09375 C 13.464844 11.191406 13.464844 11.191406 13.410156 11.292969 C 13.207031 11.359375 13.207031 11.359375 13.019531 11.371094 C 13.140625 11.074219 13.375 10.667969 13.726562 10.667969 Z M 13.726562 10.667969 "/>
<path style=" stroke:none;fill-rule:nonzero;fill:rgb(96.862745%,81.568629%,25.490198%);fill-opacity:1;" d="M 10.902344 5.488281 C 10.980469 5.488281 11.058594 5.488281 11.136719 5.488281 C 11.164062 5.695312 11.1875 5.90625 11.214844 6.117188 C 11.097656 6.195312 11.097656 6.195312 10.980469 6.273438 C 10.980469 6.222656 10.980469 6.171875 10.980469 6.117188 C 10.929688 6.089844 10.875 6.066406 10.824219 6.039062 C 10.875 6.039062 10.925781 6.039062 10.980469 6.039062 C 10.953125 5.859375 10.929688 5.675781 10.902344 5.488281 Z M 10.902344 5.488281 "/>
<path style=" stroke:none;fill-rule:nonzero;fill:rgb(70.980394%,60.392159%,19.215687%);fill-opacity:1;" d="M 12.15625 2.589844 C 12.261719 2.589844 12.363281 2.589844 12.46875 2.589844 C 12.46875 2.640625 12.46875 2.691406 12.46875 2.746094 C 12.601562 2.769531 12.730469 2.796875 12.863281 2.824219 C 12.886719 2.902344 12.914062 2.980469 12.941406 3.058594 C 12.675781 3.058594 12.621094 3.019531 12.417969 2.867188 C 12.34375 2.8125 12.34375 2.8125 12.269531 2.761719 C 12.230469 2.730469 12.195312 2.699219 12.15625 2.667969 C 12.15625 2.640625 12.15625 2.613281 12.15625 2.589844 Z M 12.15625 2.589844 "/>
<path style=" stroke:none;fill-rule:nonzero;fill:rgb(64.705884%,50.196081%,15.294118%);fill-opacity:1;" d="M 13.410156 1.253906 C 13.542969 1.253906 13.671875 1.253906 13.804688 1.253906 C 13.859375 1.398438 13.859375 1.398438 13.882812 1.570312 C 13.769531 1.707031 13.769531 1.707031 13.648438 1.804688 C 13.648438 1.699219 13.648438 1.597656 13.648438 1.488281 C 13.570312 1.488281 13.492188 1.488281 13.410156 1.488281 C 13.410156 1.414062 13.410156 1.335938 13.410156 1.253906 Z M 13.410156 1.253906 "/>
<path style=" stroke:none;fill-rule:nonzero;fill:rgb(84.313726%,76.47059%,34.509805%);fill-opacity:1;" d="M 8 7.53125 C 8.296875 7.644531 8.441406 7.824219 8.628906 8.078125 C 8.359375 8.015625 8.101562 7.933594 7.84375 7.84375 C 7.894531 7.738281 7.945312 7.636719 8 7.53125 Z M 8 7.53125 "/>
<path style=" stroke:none;fill-rule:nonzero;fill:rgb(91.37255%,65.882355%,7.450981%);fill-opacity:1;" d="M 5.726562 12.707031 C 6.152344 12.785156 6.152344 12.785156 6.589844 12.863281 C 6.589844 12.886719 6.589844 12.914062 6.589844 12.941406 C 6.328125 12.96875 6.070312 12.992188 5.804688 13.019531 C 5.777344 12.917969 5.753906 12.8125 5.726562 12.707031 Z M 5.726562 12.707031 "/>
<path style=" stroke:none;fill-rule:nonzero;fill:rgb(85.490197%,60.392159%,12.156863%);fill-opacity:1;" d="M 4.785156 12.785156 C 5.390625 12.773438 5.390625 12.773438 5.570312 12.863281 C 5.570312 12.914062 5.570312 12.964844 5.570312 13.019531 C 4.960938 12.960938 4.960938 12.960938 4.785156 12.785156 Z M 4.785156 12.785156 "/>
<path style=" stroke:none;fill-rule:nonzero;fill:rgb(91.764706%,66.666669%,9.019608%);fill-opacity:1;" d="M 3.371094 11.371094 C 3.59375 11.546875 3.804688 11.71875 4 11.921875 C 3.820312 11.894531 3.636719 11.871094 3.449219 11.84375 C 3.425781 11.6875 3.398438 11.53125 3.371094 11.371094 Z M 3.371094 11.371094 "/>
<path style=" stroke:none;fill-rule:nonzero;fill:rgb(46.666667%,39.215687%,15.294118%);fill-opacity:1;" d="M 3.136719 3.214844 C 3.136719 3.472656 3.101562 3.617188 2.980469 3.84375 C 2.8125 3.90625 2.8125 3.90625 2.667969 3.921875 C 2.769531 3.613281 2.894531 3.433594 3.136719 3.214844 Z M 3.136719 3.214844 "/>
<path style=" stroke:none;fill-rule:nonzero;fill:rgb(8.235294%,8.235294%,9.411765%);fill-opacity:1;" d="M 2.117188 12.46875 C 2.144531 12.523438 2.167969 12.574219 2.195312 12.628906 C 2.136719 12.761719 2.136719 12.761719 2.042969 12.910156 C 1.992188 13 1.9375 13.085938 1.882812 13.175781 C 1.832031 13.152344 1.777344 13.125 1.726562 13.097656 C 1.753906 12.84375 1.769531 12.734375 1.964844 12.5625 C 2.039062 12.519531 2.039062 12.519531 2.117188 12.46875 Z M 2.117188 12.46875 "/>
<path style=" stroke:none;fill-rule:nonzero;fill:rgb(12.156863%,10.588235%,6.666667%);fill-opacity:1;" d="M 2.824219 11.609375 C 2.925781 11.710938 3.03125 11.816406 3.136719 11.921875 C 3.007812 12.128906 2.878906 12.335938 2.746094 12.550781 C 2.746094 12.28125 2.785156 12.027344 2.824219 11.765625 C 2.824219 11.714844 2.824219 11.660156 2.824219 11.609375 Z M 2.824219 11.609375 "/>
<path style=" stroke:none;fill-rule:nonzero;fill:rgb(88.627452%,68.235296%,18.039216%);fill-opacity:1;" d="M 2.429688 10.429688 C 2.578125 10.476562 2.578125 10.476562 2.746094 10.589844 C 2.84375 10.871094 2.84375 10.871094 2.902344 11.136719 C 2.660156 10.917969 2.535156 10.738281 2.429688 10.429688 Z M 2.429688 10.429688 "/>
<path style=" stroke:none;fill-rule:nonzero;fill:rgb(94.509804%,74.901962%,18.82353%);fill-opacity:1;" d="M 14.195312 9.570312 C 14.246094 9.570312 14.300781 9.570312 14.351562 9.570312 C 14.328125 9.722656 14.300781 9.878906 14.273438 10.039062 C 14.171875 10.066406 14.066406 10.089844 13.960938 10.117188 C 14.039062 9.9375 14.117188 9.753906 14.195312 9.570312 Z M 14.195312 9.570312 "/>
<path style=" stroke:none;fill-rule:nonzero;fill:rgb(27.450982%,22.745098%,3.921569%);fill-opacity:1;" d="M 9.804688 7.84375 C 9.882812 7.867188 9.960938 7.894531 10.039062 7.921875 C 9.652344 8.230469 9.433594 8.269531 8.941406 8.234375 C 8.941406 8.210938 8.941406 8.183594 8.941406 8.15625 C 8.992188 8.148438 9.039062 8.136719 9.089844 8.128906 C 9.152344 8.113281 9.21875 8.101562 9.285156 8.089844 C 9.347656 8.074219 9.410156 8.0625 9.476562 8.050781 C 9.660156 8.011719 9.660156 8.011719 9.804688 7.84375 Z M 9.804688 7.84375 "/>
<path style=" stroke:none;fill-rule:nonzero;fill:rgb(98.823529%,87.450981%,27.450982%);fill-opacity:1;" d="M 8.078125 5.648438 C 8.273438 5.6875 8.273438 5.6875 8.46875 5.726562 C 8.445312 5.855469 8.417969 5.984375 8.390625 6.117188 C 8.339844 6.117188 8.289062 6.117188 8.234375 6.117188 C 8.078125 5.882812 8.078125 5.882812 8.078125 5.648438 Z M 8.078125 5.648438 "/>
<path style=" stroke:none;fill-rule:nonzero;fill:rgb(43.137255%,36.470589%,14.901961%);fill-opacity:1;" d="M 9.332031 1.175781 C 9.445312 1.183594 9.554688 1.195312 9.667969 1.207031 C 9.730469 1.210938 9.789062 1.21875 9.855469 1.222656 C 10.039062 1.253906 10.039062 1.253906 10.351562 1.410156 C 10.121094 1.410156 9.886719 1.410156 9.648438 1.410156 C 9.648438 1.359375 9.648438 1.308594 9.648438 1.253906 C 9.542969 1.230469 9.441406 1.203125 9.332031 1.175781 Z M 9.332031 1.175781 "/>
<path style=" stroke:none;fill-rule:nonzero;fill:rgb(78.431374%,59.607846%,16.862746%);fill-opacity:1;" d="M 2.746094 1.097656 C 2.875 1.097656 3.003906 1.097656 3.136719 1.097656 C 3.136719 1.175781 3.136719 1.253906 3.136719 1.332031 C 3.058594 1.308594 2.980469 1.28125 2.902344 1.253906 C 2.929688 1.382812 2.953125 1.515625 2.980469 1.648438 C 2.863281 1.550781 2.863281 1.550781 2.746094 1.410156 C 2.746094 1.308594 2.746094 1.203125 2.746094 1.097656 Z M 2.746094 1.097656 "/>
<path style=" stroke:none;fill-rule:nonzero;fill:rgb(92.54902%,84.313726%,32.941177%);fill-opacity:1;" d="M 7.921875 5.726562 C 8.023438 5.804688 8.128906 5.878906 8.234375 5.960938 C 8.210938 6.011719 8.183594 6.0625 8.15625 6.117188 C 8 6.117188 7.847656 6.117188 7.6875 6.117188 C 7.765625 5.882812 7.765625 5.882812 7.921875 5.726562 Z M 7.921875 5.726562 "/>
<path style=" stroke:none;fill-rule:nonzero;fill:rgb(96.078432%,78.823531%,28.235295%);fill-opacity:1;" d="M 13.804688 4.46875 C 13.960938 4.597656 13.960938 4.597656 14.117188 4.785156 C 14.136719 5.039062 14.136719 5.039062 14.117188 5.253906 C 13.898438 5.09375 13.878906 5.007812 13.828125 4.730469 C 13.820312 4.644531 13.8125 4.558594 13.804688 4.46875 Z M 13.804688 4.46875 "/>
<path style=" stroke:none;fill-rule:nonzero;fill:rgb(57.647061%,39.215687%,9.019608%);fill-opacity:1;" d="M 4.234375 12.550781 C 4.277344 12.570312 4.324219 12.59375 4.367188 12.617188 C 4.554688 12.710938 4.746094 12.785156 4.941406 12.863281 C 4.703125 12.941406 4.554688 12.941406 4.3125 12.863281 C 4.289062 12.757812 4.261719 12.65625 4.234375 12.550781 Z M 4.234375 12.550781 "/>
<path style=" stroke:none;fill-rule:nonzero;fill:rgb(96.470588%,85.490197%,27.843139%);fill-opacity:1;" d="M 6.351562 7.53125 C 6.507812 7.605469 6.507812 7.605469 6.667969 7.6875 C 6.667969 7.738281 6.667969 7.789062 6.667969 7.84375 C 6.746094 7.867188 6.820312 7.894531 6.902344 7.921875 C 6.722656 7.921875 6.539062 7.921875 6.351562 7.921875 C 6.351562 7.792969 6.351562 7.664062 6.351562 7.53125 Z M 6.351562 7.53125 "/>
<path style=" stroke:none;fill-rule:nonzero;fill:rgb(2.352941%,0.784314%,0%);fill-opacity:1;" d="M 10.039062 7.449219 C 10.039062 7.582031 10.039062 7.710938 10.039062 7.84375 C 9.882812 7.894531 9.730469 7.945312 9.570312 8 C 9.929688 7.449219 9.929688 7.449219 10.039062 7.449219 Z M 10.039062 7.449219 "/>
<path style=" stroke:none;fill-rule:nonzero;fill:rgb(96.078432%,71.764708%,16.862746%);fill-opacity:1;" d="M 5.570312 7.058594 C 5.621094 7.109375 5.671875 7.164062 5.726562 7.214844 C 5.722656 7.402344 5.722656 7.402344 5.695312 7.617188 C 5.6875 7.6875 5.679688 7.761719 5.667969 7.832031 C 5.664062 7.890625 5.65625 7.945312 5.648438 8 C 5.621094 8 5.59375 8 5.570312 8 C 5.554688 7.859375 5.539062 7.714844 5.523438 7.574219 C 5.515625 7.496094 5.507812 7.414062 5.5 7.332031 C 5.496094 7.269531 5.492188 7.203125 5.488281 7.136719 C 5.515625 7.113281 5.542969 7.085938 5.570312 7.058594 Z M 5.570312 7.058594 "/>
<path style=" stroke:none;fill-rule:nonzero;fill:rgb(94.901961%,75.294119%,25.882354%);fill-opacity:1;" d="M 2.117188 5.332031 C 2.273438 5.648438 2.273438 5.648438 2.273438 5.882812 C 2.15625 5.960938 2.15625 5.960938 2.039062 6.039062 C 2.066406 5.804688 2.089844 5.574219 2.117188 5.332031 Z M 2.117188 5.332031 "/>
<path style=" stroke:none;fill-rule:nonzero;fill:rgb(67.450982%,58.039218%,18.82353%);fill-opacity:1;" d="M 2.746094 3.84375 C 2.824219 3.867188 2.902344 3.894531 2.980469 3.921875 C 2.824219 4.15625 2.824219 4.15625 2.667969 4.390625 C 2.617188 4.25 2.617188 4.25 2.589844 4.078125 C 2.640625 4 2.691406 3.921875 2.746094 3.84375 Z M 2.746094 3.84375 "/>
</g>
</svg>
